STARTFONT 2.3
FONT -FontForge-Fontdiner Swanky-Book-R-Normal--12-120-72-72-P-75-ISO10646-1
SIZE 12 72 72  4
FONTBOUNDINGBOX 17 18 -3 -6
COMMENT "Generated by fontforge, http://fontforge.sourceforge.net"
COMMENT "Copyright (c) 2010 by Font Diner, Inc. All rights reserved."
STARTPROPERTIES 40
FOUNDRY "FontForge"
FAMILY_NAME "Fontdiner Swanky"
WEIGHT_NAME "Book"
SLANT "R"
SETWIDTH_NAME "Normal"
ADD_STYLE_NAME ""
PIXEL_SIZE 12
POINT_SIZE 120
RESOLUTION_X 72
RESOLUTION_Y 72
SPACING "P"
AVERAGE_WIDTH 75
CHARSET_REGISTRY "ISO10646"
CHARSET_ENCODING "1"
FONTNAME_REGISTRY ""
CHARSET_COLLECTIONS "ISO10646-1"
BITS_PER_PIXEL 4
FONT_NAME "FontdinerSwanky-Regular"
FACE_NAME "Fontdiner Swanky Regular"
COPYRIGHT "Copyright (c) 2010 by Font Diner, Inc. All rights reserved."
FONT_VERSION "1.001"
FONT_ASCENT 10
FONT_DESCENT 2
UNDERLINE_POSITION -1
UNDERLINE_THICKNESS 1
X_HEIGHT 6
CAP_HEIGHT 7
RAW_ASCENT 799
RAW_DESCENT 200
NORM_SPACE 4
RELATIVE_WEIGHT 40
RELATIVE_SETWIDTH 50
SUPERSCRIPT_X 0
SUPERSCRIPT_Y 5
SUPERSCRIPT_SIZE 7
SUBSCRIPT_X 0
SUBSCRIPT_Y 1
SUBSCRIPT_SIZE 7
AVG_LOWERCASE_WIDTH 75
AVG_UPPERCASE_WIDTH 91
ENDPROPERTIES
CHARS 231
STARTCHAR space
ENCODING 32
SWIDTH 320 0
DWIDTH 4 0
BBX 1 1 0 0
BITMAP
00
ENDCHAR
STARTCHAR exclam
ENCODING 33
SWIDTH 305 0
DWIDTH 4 0
BBX 4 12 0 -1
BITMAP
0110
0DF9
0EF6
0EF3
0FF1
0FD0
1FA0
2F70
1B40
6A20
BF50
0100
ENDCHAR
STARTCHAR quotedbl
ENCODING 34
SWIDTH 369 0
DWIDTH 4 0
BBX 5 4 0 4
BITMAP
CE8E40
BD7F30
AC6F10
221300
ENDCHAR
STARTCHAR numbersign
ENCODING 35
SWIDTH 702 0
DWIDTH 8 0
BBX 9 9 0 0
BITMAP
0011012000
00E909A000
59FC8DC720
9DFEDFEC20
02F40E7000
47F76FA600
DFFFFFFD00
05F14F5200
0480392000
ENDCHAR
STARTCHAR dollar
ENCODING 36
SWIDTH 545 0
DWIDTH 7 0
BBX 7 11 0 -2
BITMAP
00990000
00CB0100
3EDEBA00
CD007F00
BFC71700
2BFFF800
7138EF50
AD519F40
97DFC700
107F0000
00471000
ENDCHAR
STARTCHAR percent
ENCODING 37
SWIDTH 657 0
DWIDTH 8 0
BBX 9 11 0 -1
BITMAP
0000031000
3BA21EB000
C9AA6F5000
ABD8CD0000
1653F70000
0009E10000
001E901000
006F4EEB00
00CB6D3F10
03F42DEA00
0160001000
ENDCHAR
STARTCHAR ampersand
ENCODING 38
SWIDTH 668 0
DWIDTH 8 0
BBX 10 11 0 -2
BITMAP
04CDB20000
0E90CA0000
0DC1C90000
05FCC10000
03EF705000
2E8CF4B300
8F42EED800
8FC5BFDA92
1AFE9BE600
00001A2000
0000200000
ENDCHAR
STARTCHAR quotesingle
ENCODING 39
SWIDTH 177 0
DWIDTH 2 0
BBX 2 4 0 4
BITMAP
DE
BD
AC
11
ENDCHAR
STARTCHAR parenleft
ENCODING 40
SWIDTH 384 0
DWIDTH 5 0
BBX 5 12 0 -2
BITMAP
002930
03E700
0BD000
2F9000
4F7000
6F6000
5F7000
3F9000
0ED000
07F500
009D00
000440
ENDCHAR
STARTCHAR parenright
ENCODING 41
SWIDTH 375 0
DWIDTH 5 0
BBX 4 12 0 -2
BITMAP
7700
0CB0
04F6
00EC
00CE
00BF
00DE
00EC
04F9
0AE2
4E40
6100
ENDCHAR
STARTCHAR asterisk
ENCODING 42
SWIDTH 640 0
DWIDTH 8 0
BBX 8 8 0 0
BITMAP
03704200
0AF2CE40
01DBFB00
CDDFFAA7
DEDFFCD8
11DDF900
09F3EF30
02805200
ENDCHAR
STARTCHAR plus
ENCODING 43
SWIDTH 607 0
DWIDTH 7 0
BBX 8 8 0 0
BITMAP
00274000
005F9000
114F8000
DFFFEDD2
BCDFDBB1
003F6000
003F6000
00183000
ENDCHAR
STARTCHAR comma
ENCODING 44
SWIDTH 226 0
DWIDTH 3 0
BBX 3 4 0 -3
BITMAP
7C40
BF80
0E30
2200
ENDCHAR
STARTCHAR hyphen
ENCODING 45
SWIDTH 549 0
DWIDTH 7 0
BBX 6 3 0 3
BITMAP
132100
4FFFFC
4DCCB9
ENDCHAR
STARTCHAR period
ENCODING 46
SWIDTH 226 0
DWIDTH 3 0
BBX 3 2 0 -1
BITMAP
9E50
AF60
ENDCHAR
STARTCHAR slash
ENCODING 47
SWIDTH 600 0
DWIDTH 7 0
BBX 9 12 -1 -1
BITMAP
0000003300
000000CF50
000006FE10
00001EF600
00009FB000
0003FF2000
000BF80000
005FD00000
00DF400000
07FA000000
2EE1000000
1860000000
ENDCHAR
STARTCHAR zero
ENCODING 48
SWIDTH 740 0
DWIDTH 9 0
BBX 9 8 0 0
BITMAP
0027872000
08FDADF700
6FC101DF30
AF50008F80
BF40007F90
8F8000AF50
1DF648FA00
018DEC6000
ENDCHAR
STARTCHAR one
ENCODING 49
SWIDTH 503 0
DWIDTH 6 0
BBX 8 10 -1 -1
BITMAP
00158400
29DFF600
000BF600
000BF500
000AF500
0009F400
0009F400
0008F300
016DFB40
04555552
ENDCHAR
STARTCHAR two
ENCODING 50
SWIDTH 638 0
DWIDTH 8 0
BBX 8 11 0 -1
BITMAP
10000000
72388500
6DFBBFA0
4F600AF3
2B000AF3
05006FB0
005DE832
09F910A2
8FA345F1
FFFFFFF0
23345560
ENDCHAR
STARTCHAR three
ENCODING 51
SWIDTH 620 0
DWIDTH 7 0
BBX 9 10 -1 -1
BITMAP
0603650000
0ABFDFE300
06D303FC00
035000ED00
00048BF700
0105AEFB00
043003FF20
08C103FF10
0BBECFF600
1504761000
ENDCHAR
STARTCHAR four
ENCODING 52
SWIDTH 606 0
DWIDTH 7 0
BBX 8 10 -1 -1
BITMAP
00000270
00001D80
0000BF70
0009FF70
007E9F73
05F46F7B
3EFEFFFE
00004F5A
00005F63
0028CCC5
ENDCHAR
STARTCHAR five
ENCODING 53
SWIDTH 610 0
DWIDTH 7 0
BBX 7 10 0 -1
BITMAP
01468AA0
DFFFDDA0
BE100280
9F897230
6EABFF40
22006FD0
41003FD0
8C43BF90
AAFFFC10
20254000
ENDCHAR
STARTCHAR six
ENCODING 54
SWIDTH 619 0
DWIDTH 7 0
BBX 8 11 0 -1
BITMAP
00000030
00252560
05EFFD80
2EE54B90
8FB66350
CFFABF90
EF600BF3
EF2007F5
BF3009F4
3FC46EA0
03ACB700
ENDCHAR
STARTCHAR seven
ENCODING 55
SWIDTH 598 0
DWIDTH 7 0
BBX 8 10 0 -1
BITMAP
88766543
AFDEFFF8
5D004FF2
19008FB0
0200CF50
0001FD00
0004F800
0008F200
007EE500
05788960
ENDCHAR
STARTCHAR eight
ENCODING 56
SWIDTH 642 0
DWIDTH 8 0
BBX 8 11 0 -2
BITMAP
00376200
09FACF60
5FA00DF1
6F800CF2
2EE56FC0
3EFDEFC1
CF901CF9
EF5008FB
9FB12DF6
08DFFC50
00010000
ENDCHAR
STARTCHAR nine
ENCODING 57
SWIDTH 610 0
DWIDTH 7 0
BBX 8 11 0 -2
BITMAP
01687100
3EE8CE30
CF401EC0
FF100CF2
DF502EF4
4FEAEFF2
238A8FE0
4B308F80
2FFFFC00
0A375000
02000000
ENDCHAR
STARTCHAR colon
ENCODING 58
SWIDTH 223 0
DWIDTH 3 0
BBX 3 5 0 -1
BITMAP
BF40
BE40
0000
AE30
CF40
ENDCHAR
STARTCHAR semicolon
ENCODING 59
SWIDTH 228 0
DWIDTH 3 0
BBX 3 7 0 -3
BITMAP
BF40
AE40
0000
9C20
DF60
2E10
3100
ENDCHAR
STARTCHAR less
ENCODING 60
SWIDTH 563 0
DWIDTH 7 0
BBX 7 8 0 0
BITMAP
00000480
0002AFE0
018FFE80
5DFF8100
4DF70000
018F9000
0003CB10
00000780
ENDCHAR
STARTCHAR equal
ENCODING 61
SWIDTH 531 0
DWIDTH 6 0
BBX 7 5 0 1
BITMAP
88766510
FFFFFF30
66655410
CDEEFF40
BCCDEF30
ENDCHAR
STARTCHAR greater
ENCODING 62
SWIDTH 576 0
DWIDTH 7 0
BBX 7 8 0 0
BITMAP
75000000
CFB30000
7EFF9100
017EFE60
0005FE60
007FA100
1AD40000
68100000
ENDCHAR
STARTCHAR question
ENCODING 63
SWIDTH 592 0
DWIDTH 7 0
BBX 7 12 0 -1
BITMAP
10000000
59774000
9B79ED20
70003FD0
10000EF0
01107FC0
06FEFC20
08F61000
06C00000
49400000
AFC00000
15200000
ENDCHAR
STARTCHAR at
ENCODING 64
SWIDTH 792 0
DWIDTH 10 0
BBX 10 9 0 -1
BITMAP
007CEDD700
1CD4443CB0
8E2C8AC2F6
D91E33F2CB
F81ABBF1BC
DB5F36F0C9
7F59BCE2F3
08E821AC50
0014661000
ENDCHAR
STARTCHAR A
ENCODING 65
SWIDTH 788 0
DWIDTH 9 0
BBX 14 11 -2 -3
BITMAP
0005CED7000000
000006FE100000
000008FF700000
00001E5FE10000
0000980BF70000
0002FEEEFD0000
000A9433DF6000
028F30007FD000
39ABB5001EFA40
000000004FEB73
00000001740000
ENDCHAR
STARTCHAR B
ENCODING 66
SWIDTH 774 0
DWIDTH 9 0
BBX 11 10 -1 -2
BITMAP
7EEEDDC95000
02DF856AFC00
00BF5000BF30
00AF7248FD10
009FFFFFA100
007F936DF600
006F9006FD00
005FA38EF800
06EFFDB83000
353200000000
ENDCHAR
STARTCHAR C
ENCODING 67
SWIDTH 766 0
DWIDTH 9 0
BBX 9 10 0 -1
BITMAP
0001330050
01AFFFE7C0
1DFB426EA0
7FD1000580
BF90000030
BF80000000
8FB0000030
2EF5000770
04EFB9BE90
0017AA7130
ENDCHAR
STARTCHAR D
ENCODING 68
SWIDTH 833 0
DWIDTH 10 0
BBX 11 10 -1 -1
BITMAP
100000000000
4BFFFFFD8100
003FF736EE30
000EF4006FB0
000DF4002FF0
000CF3001FE0
000BF2004FB0
000AF102CF40
018EFEFFC400
045432210000
ENDCHAR
STARTCHAR E
ENCODING 69
SWIDTH 781 0
DWIDTH 9 0
BBX 10 10 -1 -1
BITMAP
0123456898
49EFFA98BD
003FF0023C
002FF05408
001FE3C401
001FFFF304
000FE1B318
000FD02268
04AFEBBBE8
2444444432
ENDCHAR
STARTCHAR F
ENCODING 70
SWIDTH 731 0
DWIDTH 9 0
BBX 10 10 -1 -1
BITMAP
0012356784
3AEFFB98E6
004FE000A6
003FD07146
003FD4E104
003FFFF000
002FC1D000
002FC05000
005FD20000
17AAAA6000
ENDCHAR
STARTCHAR G
ENCODING 71
SWIDTH 828 0
DWIDTH 10 0
BBX 11 10 0 -1
BITMAP
000144119000
02AFFFFDC000
1DFB205EB000
7FE100049000
BFA011114100
BF9027DFF930
8FD0000FD000
1EF7003FF000
04EFCBEAC100
001576301100
ENDCHAR
STARTCHAR H
ENCODING 72
SWIDTH 797 0
DWIDTH 10 0
BBX 12 10 -1 -1
BITMAP
000004666651
5777755DFA10
05EF810BF500
00CF400AF500
00CF300AF400
00BFEDDEF400
00BF742AF400
00BF3009F300
00AF328EFC71
49EFC7200000
ENDCHAR
STARTCHAR I
ENCODING 73
SWIDTH 445 0
DWIDTH 5 0
BBX 8 11 -1 -2
BITMAP
34443331
16CFF930
004FE000
003FD000
002FD000
002FC000
001FC000
001FB000
000FB000
16BFFA40
01111110
ENDCHAR
STARTCHAR J
ENCODING 74
SWIDTH 718 0
DWIDTH 9 0
BBX 11 11 -1 -2
BITMAP
000001368830
0026BEFF7000
000000DF4000
000000AF6000
0000007F8000
0000005F9000
3333205FA000
4CFA206F8000
02F600AF3000
008E9AF90000
000377300000
ENDCHAR
STARTCHAR K
ENCODING 75
SWIDTH 934 0
DWIDTH 11 0
BBX 15 10 -1 -1
BITMAP
289ABB6211111000
007FF104BFFA4000
004FE005DA200000
003FE3BD50000000
002FFEDD10000000
001FD13FB0000000
000FC008F9000000
000FC000CF600000
05CFFC722EF40000
01111115BFFFB610
ENDCHAR
STARTCHAR L
ENCODING 76
SWIDTH 712 0
DWIDTH 9 0
BBX 10 10 -1 0
BITMAP
3666666200
039FF92000
002FF20000
001FF10000
001FF10000
000FF10005
000EF10047
000DF000A7
002DF766F7
17CCBAA984
ENDCHAR
STARTCHAR M
ENCODING 77
SWIDTH 1033 0
DWIDTH 12 0
BBX 14 10 -1 -1
BITMAP
3777710003AA95
029FF9000BFE30
003FFF105FFD00
002FEF80DDFC00
001F8FE7E7FB00
000F4BFF77FB00
000E42FE17FA00
000D508707F900
027EB5216DFE94
25555551000001
ENDCHAR
STARTCHAR N
ENCODING 78
SWIDTH 840 0
DWIDTH 10 0
BBX 13 10 -1 -1
BITMAP
3777716AAAB610
03AFFA03AE3000
002FFF705C0000
002F9FF45C0000
002F1BFE7B0000
002F11CFFB0000
002F102EFB0000
005F6003EB0000
4BEEED825A0000
00000000030000
ENDCHAR
STARTCHAR O
ENCODING 79
SWIDTH 808 0
DWIDTH 10 0
BBX 10 9 0 -1
BITMAP
0003552000
05DFDDFB20
4FF4007FD1
AF90000EF5
BF70000CF7
8FA0001EF4
1DF712BF90
029EFFD600
0000110000
ENDCHAR
STARTCHAR P
ENCODING 80
SWIDTH 746 0
DWIDTH 9 0
BBX 10 9 -1 -1
BITMAP
4999987510
019FD89CF7
004FA000AF
004FB459E7
004FFB9610
004FD00000
003FE00000
04CFF93000
2555554100
ENDCHAR
STARTCHAR Q
ENCODING 81
SWIDTH 789 0
DWIDTH 9 0
BBX 11 12 0 -4
BITMAP
0049BA710000
0AFD78FE2000
5FD1005FC000
9F80000FF200
9F80001FF100
4FD0006FC000
08FC79FD2000
0039BFB10000
00001FE20000
00000DFFE920
0000AEA51000
000430000000
ENDCHAR
STARTCHAR R
ENCODING 82
SWIDTH 826 0
DWIDTH 10 0
BBX 14 11 -1 -3
BITMAP
39AAA986200000
007FD78BF90000
003FC0008F2000
002FD56AE70000
002FFACF400000
002FF02FD10000
002FF109F90000
04CFFB51EF4000
154444427FEDA4
000000009FA400
00000005710000
ENDCHAR
STARTCHAR S
ENCODING 83
SWIDTH 661 0
DWIDTH 8 0
BBX 8 10 0 -1
BITMAP
00000001
06BCB738
8F824BF7
DF710075
9FFFC711
06CFFFD3
23016EFB
3C1007FA
5BEBBFB1
51145200
ENDCHAR
STARTCHAR T
ENCODING 84
SWIDTH 754 0
DWIDTH 9 0
BBX 9 10 0 -1
BITMAP
0100000000
7FFFFFFF70
6B0AF81C60
5609F70740
3109F70230
0008F60000
0008F60000
0008F50000
029FFE8100
0233333200
ENDCHAR
STARTCHAR U
ENCODING 85
SWIDTH 725 0
DWIDTH 9 0
BBX 11 9 -1 -1
BITMAP
3887625CDA20
01FF5004F100
01FF2003F000
01FF2003E000
01FF2002E000
00FF3003C000
00CFA00A8000
002DFEEB1000
000034200000
ENDCHAR
STARTCHAR V
ENCODING 86
SWIDTH 786 0
DWIDTH 9 0
BBX 13 10 -2 -1
BITMAP
00001450000000
159CF8018A8520
013EF5000BB510
0007FC002E1000
0001EF30980000
00007FA2E10000
00001EFB700000
000008FE100000
000001E6000000
00000070000000
ENDCHAR
STARTCHAR W
ENCODING 87
SWIDTH 1026 0
DWIDTH 12 0
BBX 16 9 -2 -1
BITMAP
1678AB7111597532
016FF400B102CC62
000BF705F700D300
0005FD0CFE14C000
0000DF7FDF9A7000
00007FFD3FFE1000
00001FF60AFA0000
00000AE003F40000
0000037000900000
ENDCHAR
STARTCHAR X
ENCODING 88
SWIDTH 860 0
DWIDTH 10 0
BBX 13 9 -1 -1
BITMAP
00123530000000
16AFF618CD9300
0008FC19D30000
0000BFEC100000
00003FF8000000
0004EAFF500000
006E606FE30000
5BEE810CFD6100
00000178776510
ENDCHAR
STARTCHAR Y
ENCODING 89
SWIDTH 848 0
DWIDTH 10 0
BBX 13 9 -2 -1
BITMAP
179ABB40000000
003AFC006EEB40
0000BF901C4000
00001CF8C40000
000001DF600000
0000009F200000
0000009F400000
000000AF600000
00003ACCCA5000
ENDCHAR
STARTCHAR Z
ENCODING 90
SWIDTH 685 0
DWIDTH 8 0
BBX 9 8 0 0
BITMAP
2233444520
AFEDDFFD10
6A006FF300
2704FF6000
023EF90410
01DFC00C00
1CFF647E00
6BBCCCCB00
ENDCHAR
STARTCHAR bracketleft
ENCODING 91
SWIDTH 380 0
DWIDTH 5 0
BBX 6 12 0 -2
BITMAP
3DCC71
4FD300
3FA000
3FA000
2F9000
2F9000
2F9000
1F9000
1F8000
0F8000
0FD500
066640
ENDCHAR
STARTCHAR backslash
ENCODING 92
SWIDTH 680 0
DWIDTH 8 0
BBX 8 12 0 -1
BITMAP
05100000
9F800000
4FF20000
0AFB0000
02EF4000
006FD000
000CF700
0003FE10
00009F90
00001DF3
000005FB
00000095
ENDCHAR
STARTCHAR bracketright
ENCODING 93
SWIDTH 371 0
DWIDTH 4 0
BBX 5 12 -1 -2
BITMAP
29CCC0
005FE0
000EE0
000ED0
000ED0
000EC0
000DC0
000DB0
000DB0
000DB0
018FA0
066640
ENDCHAR
STARTCHAR asciicircum
ENCODING 94
SWIDTH 671 0
DWIDTH 8 0
BBX 8 8 0 3
BITMAP
00031000
000C9000
006FF400
01EFED00
09FB2E80
3FF404F2
CFB0007B
37300001
ENDCHAR
STARTCHAR underscore
ENCODING 95
SWIDTH 840 0
DWIDTH 10 0
BBX 11 3 0 -2
BITMAP
CCCDDDDEEE00
FFFFFFFFFF10
223333444400
ENDCHAR
STARTCHAR grave
ENCODING 96
SWIDTH 707 0
DWIDTH 8 0
BBX 3 3 3 7
BITMAP
3B40
2F90
0890
ENDCHAR
STARTCHAR a
ENCODING 97
SWIDTH 572 0
DWIDTH 7 0
BBX 8 8 0 -1
BITMAP
02797100
3E94DD00
5F607F30
0888BF40
8F74BF30
AF74DF10
17AAFF71
00004331
ENDCHAR
STARTCHAR b
ENCODING 98
SWIDTH 723 0
DWIDTH 9 0
BBX 11 11 -2 -2
BITMAP
279BD7000000
016DF7000000
000AF6000000
000AF5000000
0009F5000000
0008F9998200
0008FA68FE30
0007F3009F80
0007F200AF50
000AF88CE600
019BA8751000
ENDCHAR
STARTCHAR c
ENCODING 99
SWIDTH 589 0
DWIDTH 7 0
BBX 7 7 0 -1
BITMAP
019DD910
1DE45FA0
7F802D90
9F600010
7FB00080
1DFC9D60
017A9500
ENDCHAR
STARTCHAR d
ENCODING 100
SWIDTH 713 0
DWIDTH 9 0
BBX 10 12 0 -2
BITMAP
0000454310
000006EF70
000000CF50
000000CF30
000000DF10
006995EE00
1CFA7BFC00
6F8001FA00
7F6001F800
2EC202F600
04BFDFF500
000014DB72
ENDCHAR
STARTCHAR e
ENCODING 101
SWIDTH 593 0
DWIDTH 7 0
BBX 7 7 0 -1
BITMAP
00477100
0AFBDE30
6F701EB0
9FDBBEE0
7F844330
1DE76930
018A9300
ENDCHAR
STARTCHAR f
ENCODING 102
SWIDTH 507 0
DWIDTH 6 0
BBX 8 17 -1 -5
BITMAP
00005730
0008E9E5
001F90EB
004F7075
004F7000
004F9000
0CFFFFE0
011FD110
000EE000
000CF100
000AF300
0008F400
0006F600
1404F700
8F25F500
5F5BD000
06BA2000
ENDCHAR
STARTCHAR g
ENCODING 103
SWIDTH 606 0
DWIDTH 7 0
BBX 8 14 0 -6
BITMAP
00000472
00013EFC
05DDFBA6
4F804F80
AF200DE0
9F200ED0
3E906F60
0AFDC600
3FE97500
1DEBCFC1
CF2007F8
EE0003FA
9F601AF5
07CEEB40
ENDCHAR
STARTCHAR h
ENCODING 104
SWIDTH 678 0
DWIDTH 8 0
BBX 11 12 -2 -1
BITMAP
000022000000
17DFF6000000
001CF6000000
000BF5000000
000BF4000000
000AF4000000
0009FCCB6000
0009F628F800
0008F201FC00
0008F100FA00
005DFA11F800
0021002ABC60
ENDCHAR
STARTCHAR i
ENCODING 105
SWIDTH 393 0
DWIDTH 5 0
BBX 5 10 0 0
BITMAP
017300
07FD00
03D900
333300
3AFD00
01FC00
01FB00
00FA00
01F900
4DFF80
ENDCHAR
STARTCHAR j
ENCODING 106
SWIDTH 385 0
DWIDTH 5 0
BBX 6 14 -1 -5
BITMAP
00A900
03FF30
008800
168A70
018FA0
001FC0
000FD0
000DF0
000BF1
0009F2
8A08F2
BD09E0
3DDE40
001000
ENDCHAR
STARTCHAR k
ENCODING 107
SWIDTH 749 0
DWIDTH 9 0
BBX 12 12 -2 -2
BITMAP
157895000000
003DF7000000
000BF74AAAA4
000AF707F810
0009F66D4000
0008FDFA0000
0007FB9F4000
0006F50DD000
0005F503F700
007EFE819F73
01110005CA73
000000010000
ENDCHAR
STARTCHAR l
ENCODING 108
SWIDTH 369 0
DWIDTH 4 0
BBX 7 12 -2 -1
BITMAP
14444200
027EF700
000AF700
0009F600
0009F600
0008F500
0007F500
0007F400
0006F400
0005F300
0006F500
007DCC50
ENDCHAR
STARTCHAR m
ENCODING 109
SWIDTH 990 0
DWIDTH 12 0
BBX 14 7 -1 0
BITMAP
01464441024000
5BEFFFFDDFFC00
008F707FB19F30
006F303F505F40
005F303F307F30
0499838F649A93
00000444320000
ENDCHAR
STARTCHAR n
ENCODING 110
SWIDTH 643 0
DWIDTH 8 0
BBX 10 7 -1 0
BITMAP
0146334100
5BEFFFFE10
008F707F60
006F303F60
005F203F40
0499838F60
0000044432
ENDCHAR
STARTCHAR o
ENCODING 111
SWIDTH 705 0
DWIDTH 8 0
BBX 9 7 0 -1
BITMAP
027AB94000
3ED649F900
BF3000BF30
CF2000AF40
7F9004ED10
06CEEE9100
0000100000
ENDCHAR
STARTCHAR p
ENCODING 112
SWIDTH 723 0
DWIDTH 9 0
BBX 11 10 -2 -3
BITMAP
146794000000
027EFBBB8200
0009F935DE20
0008F5005F70
0007F5006F70
0007FB67ED10
0006FAAA8100
0005F6000000
0005F8000000
028DCC920000
ENDCHAR
STARTCHAR q
ENCODING 113
SWIDTH 682 0
DWIDTH 8 0
BBX 10 10 0 -3
BITMAP
000008BB92
07DFEEF700
8F710BF400
DE000AF300
BF300BF200
2EEAAEF100
01575CF000
00000BF000
00004DE400
0004788971
ENDCHAR
STARTCHAR r
ENCODING 114
SWIDTH 595 0
DWIDTH 7 0
BBX 9 9 -1 -1
BITMAP
0000100000
27AED7CD30
038FFADF70
002FD01500
000FB00000
000EB00000
001DD40000
05DDCA7100
0100000000
ENDCHAR
STARTCHAR s
ENCODING 115
SWIDTH 533 0
DWIDTH 6 0
BBX 7 9 0 -1
BITMAP
00000100
1AEE9800
9E129E00
AFB50800
2CFFE600
6249FF40
9D418F50
98CED700
10000000
ENDCHAR
STARTCHAR t
ENCODING 116
SWIDTH 422 0
DWIDTH 5 0
BBX 7 12 -1 -1
BITMAP
00074000
000D4000
007F3000
1EFFCA30
03EF6720
00ED0000
00FC0000
02FB0000
03F90300
02FB2B00
00CFF800
00143000
ENDCHAR
STARTCHAR u
ENCODING 117
SWIDTH 614 0
DWIDTH 7 0
BBX 9 7 -1 -1
BITMAP
5DE929BB20
04F900CF10
04F700BD00
04F700CB00
01FA03E900
007FFEEC50
0000206520
ENDCHAR
STARTCHAR v
ENCODING 118
SWIDTH 639 0
DWIDTH 8 0
BBX 11 8 -2 -1
BITMAP
000356100000
17DFC2787640
001EE10AD610
0007F70D5000
0001DE6C0000
00005FF50000
00000CC00000
000003500000
ENDCHAR
STARTCHAR w
ENCODING 119
SWIDTH 805 0
DWIDTH 10 0
BBX 14 7 -2 0
BITMAP
16789611277651
018FC02B03F610
000DF39F37B000
0006FBEFAE4000
0000DF9CFC0000
00007F24F50000
00001900A00000
ENDCHAR
STARTCHAR x
ENCODING 120
SWIDTH 717 0
DWIDTH 9 0
BBX 11 8 -1 -1
BITMAP
024685100000
47DF83ACC710
002DF6CB1000
0003EF900000
0003DFD10000
016E95FA0000
167883BFC720
000005542100
ENDCHAR
STARTCHAR y
ENCODING 121
SWIDTH 655 0
DWIDTH 8 0
BBX 9 13 -1 -6
BITMAP
3200000000
0BC74ABA40
02FF10BF70
06FC009F60
08F9009F60
04FE76CF50
005ABACF40
000000AF40
000000BF30
05E300DF00
07F204FA00
01CDAEC200
0004540000
ENDCHAR
STARTCHAR z
ENCODING 122
SWIDTH 549 0
DWIDTH 7 0
BBX 7 8 0 -1
BITMAP
12233440
BEDDFF80
8707FB00
534FE210
12EF4340
1CF90A50
7DEFFF60
00001210
ENDCHAR
STARTCHAR braceleft
ENCODING 123
SWIDTH 708 0
DWIDTH 9 0
BBX 7 12 1 -2
BITMAP
00DCC920
00FE4000
00FD0000
00ED0000
00ED0000
49FD0000
26EC0000
00DC0000
00CC0000
00CC0000
00BE7100
00566500
ENDCHAR
STARTCHAR bar
ENCODING 124
SWIDTH 304 0
DWIDTH 4 0
BBX 3 12 0 -1
BITMAP
0010
2FC0
2FC0
2FC0
2FC0
2FB0
1FB0
1FB0
1FB0
1FA0
1FA0
0D90
ENDCHAR
STARTCHAR braceright
ENCODING 125
SWIDTH 517 0
DWIDTH 6 0
BBX 7 12 0 -2
BITMAP
5BCD7000
01AF8000
005F8000
005F7000
005F7000
005FD720
004FA400
004F5000
004F5000
003F5000
03BF4000
26662000
ENDCHAR
STARTCHAR asciitilde
ENCODING 126
SWIDTH 466 0
DWIDTH 6 0
BBX 6 3 0 2
BITMAP
ACA678
FCEFF9
300441
ENDCHAR
STARTCHAR uni00A0
ENCODING 160
SWIDTH 320 0
DWIDTH 4 0
BBX 1 1 0 0
BITMAP
00
ENDCHAR
STARTCHAR exclamdown
ENCODING 161
SWIDTH 305 0
DWIDTH 4 0
BBX 4 11 0 -4
BITMAP
0282
08F9
0261
09E0
0CD0
0ED0
2FC0
5FB0
8FB0
AFA0
7A70
ENDCHAR
STARTCHAR cent
ENCODING 162
SWIDTH 417 0
DWIDTH 5 0
BBX 6 11 -1 -2
BITMAP
001840
001F70
007FC3
08D18D
0F7027
1F6000
0DB007
03EED6
000F70
001F80
000420
ENDCHAR
STARTCHAR sterling
ENCODING 163
SWIDTH 658 0
DWIDTH 8 0
BBX 8 10 0 -1
BITMAP
00000002
005CD939
05FB5BF8
2BF300B6
FFFFFA34
55EA4303
EFFFFA08
13F7331D
0AFEFFFD
04556776
ENDCHAR
STARTCHAR currency
ENCODING 164
SWIDTH 358 0
DWIDTH 4 0
BBX 5 5 0 2
BITMAP
210300
BEEE10
5C6B00
7FEC00
843810
ENDCHAR
STARTCHAR yen
ENCODING 165
SWIDTH 796 0
DWIDTH 10 0
BBX 12 8 -2 0
BITMAP
169AA4033221
003CE202CD72
0001DD25B100
00002DDC1000
0000BCFB8000
00009BFB8000
000037F95000
00027CCC8400
ENDCHAR
STARTCHAR brokenbar
ENCODING 166
SWIDTH 304 0
DWIDTH 4 0
BBX 3 12 0 -1
BITMAP
0010
2FC0
2FC0
2FC0
2FC0
0320
0000
1A60
1FB0
1FA0
1FA0
0D90
ENDCHAR
STARTCHAR section
ENCODING 167
SWIDTH 646 0
DWIDTH 8 0
BBX 8 14 0 -3
BITMAP
00574020
1CC9DB80
6F2009C0
7FB20070
1DFFB400
0AFFFF80
5F328FF3
7F8009F4
2EFD9EB0
04DFFF50
2205CFF2
4C100AF4
5ED76DD1
5259A710
ENDCHAR
STARTCHAR dieresis
ENCODING 168
SWIDTH 708 0
DWIDTH 9 0
BBX 4 3 2 9
BITMAP
1313
7C5E
0001
ENDCHAR
STARTCHAR copyright
ENCODING 169
SWIDTH 700 0
DWIDTH 8 0
BBX 9 9 0 0
BITMAP
0000100000
04CEEE7000
4F7474C900
C76A4C2F30
F4B5020E60
D698041F40
7D2AB48C00
09D98CC200
0026630000
ENDCHAR
STARTCHAR ordfeminine
ENCODING 170
SWIDTH 399 0
DWIDTH 5 0
BBX 6 6 -1 4
BITMAP
016720
0BB9E1
0797F2
1EA9F1
0ADEF3
000354
ENDCHAR
STARTCHAR guillemotleft
ENCODING 171
SWIDTH 424 0
DWIDTH 5 0
BBX 5 7 0 -1
BITMAP
027090
0C68B0
8E4F40
BD7F20
2E4B80
0592C0
001010
ENDCHAR
STARTCHAR logicalnot
ENCODING 172
SWIDTH 541 0
DWIDTH 7 0
BBX 7 7 0 0
BITMAP
30000020
92210440
BFFFFF30
A9889F20
50000E10
00004E50
00001230
ENDCHAR
STARTCHAR sfthyphen
ENCODING 173
SWIDTH 530 0
DWIDTH 6 0
BBX 7 3 0 3
BITMAP
32210000
EFFFFE50
DDCCBB30
ENDCHAR
STARTCHAR registered
ENCODING 174
SWIDTH 700 0
DWIDTH 8 0
BBX 9 8 0 0
BITMAP
03ADED6000
3F8213D800
C84DCE7F30
F40A731E60
E508500F50
8C29937D10
0AC77BD300
0047750000
ENDCHAR
STARTCHAR macron
ENCODING 175
SWIDTH 705 0
DWIDTH 8 0
BBX 4 3 3 8
BITMAP
4441
FFF5
5552
ENDCHAR
STARTCHAR degree
ENCODING 176
SWIDTH 364 0
DWIDTH 4 0
BBX 4 4 0 5
BITMAP
0571
4DA9
4DAA
0681
ENDCHAR
STARTCHAR plusminus
ENCODING 177
SWIDTH 607 0
DWIDTH 7 0
BBX 7 8 0 0
BITMAP
00385000
004F9000
BFEFECB0
ADEFDCB0
003F6000
11194000
9FFEDDB0
9DDDCCA0
ENDCHAR
STARTCHAR twosuperior
ENCODING 178
SWIDTH 440 0
DWIDTH 5 0
BBX 6 7 0 4
BITMAP
427610
6F9DC0
4807F1
326EA1
2CC3A1
BFBBE0
677880
ENDCHAR
STARTCHAR threesuperior
ENCODING 179
SWIDTH 442 0
DWIDTH 5 0
BBX 6 8 0 3
BITMAP
402100
8CEF70
5908E0
12ADB0
326DF1
7B4BF1
88DB40
100000
ENDCHAR
STARTCHAR acute
ENCODING 180
SWIDTH 694 0
DWIDTH 8 0
BBX 3 4 3 8
BITMAP
0720
2F80
5E10
0100
ENDCHAR
STARTCHAR mu
ENCODING 181
SWIDTH 1000 0
DWIDTH 12 0
BBX 10 10 0 -4
BITMAP
4CEA29BB30
02FA00BF20
02F900AE00
02F800BC00
01FB02DA00
01FFFEED61
01F8206520
01F7000000
00F7000000
0011000000
ENDCHAR
STARTCHAR paragraph
ENCODING 182
SWIDTH 782 0
DWIDTH 9 0
BBX 11 9 -1 -1
BITMAP
0059BCCDD930
0CE89F6F4000
2F805F2F3000
06DCBF8F2000
00039F9F2000
00006E3F2000
00006D6F2000
0003AFFFE710
004654432210
ENDCHAR
STARTCHAR periodcentered
ENCODING 183
SWIDTH 226 0
DWIDTH 3 0
BBX 3 3 0 3
BITMAP
3810
CF80
3710
ENDCHAR
STARTCHAR cedilla
ENCODING 184
SWIDTH 780 0
DWIDTH 9 0
BBX 3 5 3 -3
BITMAP
0600
5E50
25E0
7DD0
0310
ENDCHAR
STARTCHAR onesuperior
ENCODING 185
SWIDTH 390 0
DWIDTH 5 0
BBX 5 7 0 4
BITMAP
002300
5CF800
01F800
01F700
00F700
00F700
19CB20
ENDCHAR
STARTCHAR ordmasculine
ENCODING 186
SWIDTH 449 0
DWIDTH 5 0
BBX 7 5 -1 5
BITMAP
00121000
08EADA10
3F601F70
2F704F50
04CDC600
ENDCHAR
STARTCHAR guillemotright
ENCODING 187
SWIDTH 415 0
DWIDTH 5 0
BBX 5 7 0 -1
BITMAP
816300
995D10
3F5DA0
1F8BD0
7D3F30
B37700
101000
ENDCHAR
STARTCHAR onequarter
ENCODING 188
SWIDTH 918 0
DWIDTH 11 0
BBX 11 13 0 -2
BITMAP
002300004200
5CF80001EC00
01F80008F400
01F7002F9000
00F700BE1000
00F705F50600
19CB3DB09900
00007F27F900
0002E75EE960
000AD3EDEE80
004F4233DA60
00C90039FD50
006100110000
ENDCHAR
STARTCHAR onehalf
ENCODING 189
SWIDTH 1007 0
DWIDTH 12 0
BBX 12 13 0 -2
BITMAP
002300004200
5CF80001EC00
01F80008F400
01F7002F9000
00F700BE1000
00F705F50000
19CB3DB42640
00007F29EAE9
0002E707609D
000AD00517F9
004F4003DB3A
00C9000DF9BC
006100188997
ENDCHAR
STARTCHAR threequarters
ENCODING 190
SWIDTH 936 0
DWIDTH 11 0
BBX 11 13 0 -2
BITMAP
402100002300
8CEF7000BE10
5908E005F700
12ADC01DC000
326DF18F3000
7B4BF3F90600
88DB4AD16D00
10004F54FC00
0000DA2EDC70
0007E3DEDEB0
001E7233AB80
009C0028EE60
004300111000
ENDCHAR
STARTCHAR questiondown
ENCODING 191
SWIDTH 568 0
DWIDTH 7 0
BBX 8 11 -1 -4
BITMAP
000009D5
00000AF8
00000630
00004F80
0059DF60
09FC6730
1FE10000
1FE00004
08FA2059
005BDDE6
00000033
ENDCHAR
STARTCHAR Agrave
ENCODING 192
SWIDTH 788 0
DWIDTH 9 0
BBX 14 15 -2 -3
BITMAP
000007A0000000
000008F2000000
000001D4000000
00000000000000
0005CED7000000
000006FE100000
000008FF700000
00001E5FE10000
0000980BF70000
0002FEEEFD0000
000A9433DF6000
028F30007FD000
39ABB5001EFA40
000000004FEB73
00000001740000
ENDCHAR
STARTCHAR Aacute
ENCODING 193
SWIDTH 788 0
DWIDTH 9 0
BBX 14 15 -2 -3
BITMAP
00000045000000
000000BD000000
000001E5000000
00000010000000
0005CED7000000
000006FE100000
000008FF700000
00001E5FE10000
0000980BF70000
0002FEEEFD0000
000A9433DF6000
028F30007FD000
39ABB5001EFA40
000000004FEB73
00000001740000
ENDCHAR
STARTCHAR Acircumflex
ENCODING 194
SWIDTH 788 0
DWIDTH 9 0
BBX 14 14 -2 -3
BITMAP
000001C6000000
00000AEF300000
00002914700000
0005CED7000000
000006FE100000
000008FF700000
00001E5FE10000
0000980BF70000
0002FEEEFD0000
000A9433DF6000
028F30007FD000
39ABB5001EFA40
000000004FEB73
00000001740000
ENDCHAR
STARTCHAR Atilde
ENCODING 195
SWIDTH 788 0
DWIDTH 9 0
BBX 14 14 -2 -3
BITMAP
00000561400000
00000EFFA00000
00000315200000
0005CED7000000
000006FE100000
000008FF700000
00001E5FE10000
0000980BF70000
0002FEEEFD0000
000A9433DF6000
028F30007FD000
39ABB5001EFA40
000000004FEB73
00000001740000
ENDCHAR
STARTCHAR Adieresis
ENCODING 196
SWIDTH 788 0
DWIDTH 9 0
BBX 14 14 -2 -3
BITMAP
00000313100000
00000E4C600000
00000101000000
0005CED7000000
000006FE100000
000008FF700000
00001E5FE10000
0000980BF70000
0002FEEEFD0000
000A9433DF6000
028F30007FD000
39ABB5001EFA40
000000004FEB73
00000001740000
ENDCHAR
STARTCHAR Aring
ENCODING 197
SWIDTH 788 0
DWIDTH 9 0
BBX 14 14 -2 -3
BITMAP
00000011000000
000004CC000000
000005BC000000
0005CEF8000000
000006FE100000
000008FF700000
00001E5FE00000
0000980BF60000
0002FEEEFD0000
000A9433DF6000
028F30007FD000
39ABB5001EFA40
000000004FEB73
00000001740000
ENDCHAR
STARTCHAR AE
ENCODING 198
SWIDTH 1019 0
DWIDTH 12 0
BBX 15 10 -3 -1
BITMAP
0000334566788970
00004DFFFFB98CB0
000000CCFF3014A0
000003F3EF335070
00000C70EF5B5010
00006D10DFFF4030
0001EFFFFF294270
000A8222DF113670
04AF3039EFBBBE70
4789A54444444320
ENDCHAR
STARTCHAR Ccedilla
ENCODING 199
SWIDTH 766 0
DWIDTH 9 0
BBX 9 14 0 -5
BITMAP
0001330050
01AFFFE7C0
1DFB426EA0
7FD1000580
BF90000030
BF80000000
8FB0000030
1EF5000770
04EFB9BE90
0017EA7130
0008E50000
00024E0000
0009EA0000
0000200000
ENDCHAR
STARTCHAR Egrave
ENCODING 200
SWIDTH 781 0
DWIDTH 9 0
BBX 10 13 -1 -1
BITMAP
00004C1000
00005F6000
00000B7000
0123456898
49EFFA98BD
003FF0023C
002FF05408
001FE3C401
001FFFF304
000FE1B318
000FD02268
04AFEBBBE8
2444444432
ENDCHAR
STARTCHAR Eacute
ENCODING 201
SWIDTH 781 0
DWIDTH 9 0
BBX 10 13 -1 -1
BITMAP
0000026100
000008F200
00000B8000
0123467898
49EFFA98BD
003FF0023C
002FF05408
001FE3C401
001FFFF304
000FE1B318
000FD02268
04AFEBBBE8
2444444432
ENDCHAR
STARTCHAR Ecircumflex
ENCODING 202
SWIDTH 781 0
DWIDTH 9 0
BBX 10 13 -1 -1
BITMAP
00002E3000
0001CED100
0004706500
0123456898
49EFFA98BD
003FF0023C
002FF05408
001FE3C401
001FFFF304
000FE1B318
000FD02268
04AFEBBBE8
2444444432
ENDCHAR
STARTCHAR Edieresis
ENCODING 203
SWIDTH 781 0
DWIDTH 9 0
BBX 10 12 -1 -1
BITMAP
0000313100
0000E4C600
0123557898
49EFFA98BD
003FF0023C
002FF05408
001FE3C401
001FFFF304
000FE1B318
000FD02268
04AFEBBBE8
2444444432
ENDCHAR
STARTCHAR Igrave
ENCODING 204
SWIDTH 445 0
DWIDTH 5 0
BBX 8 14 -1 -2
BITMAP
005C0000
005F5000
000C6000
34443331
16CFF930
004FE000
003FD000
002FD000
002FC000
001FC000
001FB000
000FB000
16BFFA40
01111110
ENDCHAR
STARTCHAR Iacute
ENCODING 205
SWIDTH 445 0
DWIDTH 5 0
BBX 8 14 -1 -2
BITMAP
00017100
0006F300
000AA000
34444331
16CFF930
004FE000
003FD000
002FD000
002FC000
001FC000
001FB000
000FB000
16BFFA40
01111110
ENDCHAR
STARTCHAR Icircumflex
ENCODING 206
SWIDTH 445 0
DWIDTH 5 0
BBX 8 14 -1 -2
BITMAP
000B7000
008EF400
01913800
34443331
16CFF930
004FE000
003FD000
002FD000
002FC000
001FC000
001FB000
000FB000
16BFFA40
01111110
ENDCHAR
STARTCHAR Idieresis
ENCODING 207
SWIDTH 445 0
DWIDTH 5 0
BBX 8 13 -1 -2
BITMAP
00313100
00D5B800
34444331
16CFF930
004FE000
003FD000
002FD000
002FC000
001FC000
001FB000
000FB000
16BFFA40
01111110
ENDCHAR
STARTCHAR Eth
ENCODING 208
SWIDTH 1000 0
DWIDTH 12 0
BBX 12 10 0 -1
BITMAP
100000000000
29EFFFFEB400
001BFC24BF90
0008FB000DF3
078BFC630AF7
0CEEFED709F7
0005F8000CF4
0004F7007FB0
005DFFEFE910
035432210000
ENDCHAR
STARTCHAR Ntilde
ENCODING 209
SWIDTH 840 0
DWIDTH 10 0
BBX 13 13 -1 -1
BITMAP
00004624000000
0000BEFE000000
00003043000000
3777716AAAB610
03AFFA03AE3000
002FFF705C0000
002F9FF45C0000
002F1BFE7B0000
002F11CFFB0000
002F102EFB0000
005F6003EB0000
4BEEED825A0000
00000000030000
ENDCHAR
STARTCHAR Ograve
ENCODING 210
SWIDTH 808 0
DWIDTH 10 0
BBX 10 12 0 -1
BITMAP
0001970000
0000DC0000
00005C1000
0003552000
05DFDDFB20
4FF4007FD1
AF90000EF5
BF70000CF7
8FA0001EF4
1DF712BF90
029EFFD600
0000110000
ENDCHAR
STARTCHAR Oacute
ENCODING 211
SWIDTH 808 0
DWIDTH 10 0
BBX 10 12 0 -1
BITMAP
0000171000
00006F3000
00009A0000
0003562000
05DFDDFB20
4FF4007FD1
AF90000EF5
BF70000CF7
8FA0001EF4
1DF712BF90
029EFFD600
0000110000
ENDCHAR
STARTCHAR Ocircumflex
ENCODING 212
SWIDTH 808 0
DWIDTH 10 0
BBX 10 12 0 -1
BITMAP
0000B80000
0008EF5000
0019238000
0003552000
05DFDDFB20
4FF4007FD1
AF90000EF5
BF70000CF7
8FA0001EF4
1DF712BF90
029EFFD600
0000110000
ENDCHAR
STARTCHAR Otilde
ENCODING 213
SWIDTH 808 0
DWIDTH 10 0
BBX 10 12 0 -1
BITMAP
0004624000
000BEFE000
0003043000
0003552000
05DFDDFB20
4FF4007FD1
AF90000EF5
BF70000CF7
8FA0001EF4
1DF712BF90
029EFFD600
0000110000
ENDCHAR
STARTCHAR Odieresis
ENCODING 214
SWIDTH 808 0
DWIDTH 10 0
BBX 10 11 0 -1
BITMAP
0003122000
000D6B8000
0004553000
05DFDDFB20
4FF4007FD1
AF90000EF5
BF70000CF7
8FA0001EF4
1DF712BF90
029EFFD600
0000110000
ENDCHAR
STARTCHAR multiply
ENCODING 215
SWIDTH 556 0
DWIDTH 7 0
BBX 7 7 0 1
BITMAP
02000100
5F608C10
6FFAFE40
06FFE400
06FFE300
6FD6FE20
5C104C20
ENDCHAR
STARTCHAR Oslash
ENCODING 216
SWIDTH 808 0
DWIDTH 10 0
BBX 10 11 0 -2
BITMAP
0000004400
000355DF30
05DFDEFE20
4FF51EFFD1
AF907F6DF5
BF71EB0CF7
8FB9F21EF4
2DFF82BF90
02EFFFD600
03F4210000
0030000000
ENDCHAR
STARTCHAR Ugrave
ENCODING 217
SWIDTH 725 0
DWIDTH 9 0
BBX 11 13 -1 -1
BITMAP
00006B000000
00007F400000
00000C500000
000000000000
3887625CDA20
01FF5004F100
01FF2003F000
01FF2003E000
01FF2002E000
00FF3003C000
00CFA00A8000
002DFEEB1000
000034200000
ENDCHAR
STARTCHAR Uacute
ENCODING 218
SWIDTH 725 0
DWIDTH 9 0
BBX 11 13 -1 -1
BITMAP
000006300000
00001E900000
00004E200000
000001000000
3887625CDA20
01FF5004F100
01FF2003F000
01FF2003E000
01FF2002E000
00FF3003C000
00CFA00A8000
002DFEEB1000
000034200000
ENDCHAR
STARTCHAR Ucircumflex
ENCODING 219
SWIDTH 725 0
DWIDTH 9 0
BBX 11 12 -1 -1
BITMAP
00002E300000
0001CED10000
000470650000
3887625CDA20
01FF5004F100
01FF2003F000
01FF2003E000
01FF2002E000
00FF3003C000
00CFA00A8000
002DFEEB1000
000034200000
ENDCHAR
STARTCHAR Udieresis
ENCODING 220
SWIDTH 725 0
DWIDTH 9 0
BBX 11 12 -1 -1
BITMAP
000031310000
0000E4C60000
000010100000
3887625CDA20
01FF5004F100
01FF2003F000
01FF2003E000
01FF2002E000
00FF3003C000
00CFA00A8000
002DFEEB1000
000034200000
ENDCHAR
STARTCHAR Yacute
ENCODING 221
SWIDTH 848 0
DWIDTH 10 0
BBX 13 13 -2 -1
BITMAP
00000003610000
00000008E20000
0000000C800000
00000000000000
179ABB40000000
003AFC006EEB40
0000BF901C4000
00001CF8C40000
000001DF600000
0000009F200000
0000009F400000
000000AF600000
00003ACCCA5000
ENDCHAR
STARTCHAR Thorn
ENCODING 222
SWIDTH 745 0
DWIDTH 9 0
BBX 10 9 -1 -1
BITMAP
49A9984000
019FC30000
004FFFEC81
004FA014DD
004FA002CD
004FEBDD81
003FD31000
04CFF93000
2555554100
ENDCHAR
STARTCHAR germandbls
ENCODING 223
SWIDTH 986 0
DWIDTH 12 0
BBX 13 17 -1 -5
BITMAP
00000110000000
00009FFD400000
0007F407F20000
000EA000E90000
002F8000CA0000
003F9002F70000
0CFFB00BE10000
011FC03F800000
000DE06F800000
000BF12EFA4000
0009F304DFFC30
0007F52805CFD0
0006F63FA44FC0
1404F7489CC910
8F35F510000000
4F6BD000000000
05BA2000000000
ENDCHAR
STARTCHAR agrave
ENCODING 224
SWIDTH 572 0
DWIDTH 7 0
BBX 8 11 0 -1
BITMAP
0006B000
0007F400
0000C500
02797100
3E94DD00
5F607F30
0888BF40
8F74BF30
AF74DF10
17AAFF71
00004331
ENDCHAR
STARTCHAR aacute
ENCODING 225
SWIDTH 572 0
DWIDTH 7 0
BBX 8 12 0 -1
BITMAP
00018100
0005F400
0008B000
00001000
02797100
3E94DD00
5F607F30
0888BF40
8F74BF30
AF74DF10
17AAFF71
00004331
ENDCHAR
STARTCHAR acircumflex
ENCODING 226
SWIDTH 572 0
DWIDTH 7 0
BBX 8 11 0 -1
BITMAP
000A9000
007EF500
00923900
02797100
3E94DD00
5F607F30
0888BF40
8F74BF30
AF74DF10
17AAFF71
00004331
ENDCHAR
STARTCHAR atilde
ENCODING 227
SWIDTH 572 0
DWIDTH 7 0
BBX 8 11 0 -1
BITMAP
00462400
00CEFD00
00315300
02797100
3E94DD00
5F607F30
0888BF40
8F74BF30
AF74DF10
17AAFF71
00004331
ENDCHAR
STARTCHAR adieresis
ENCODING 228
SWIDTH 572 0
DWIDTH 7 0
BBX 8 11 0 -1
BITMAP
00403100
01F3D500
00101000
02797100
3E94DD00
5F607F30
0888BF40
8F74BF30
AF74DF10
17AAFF71
00004331
ENDCHAR
STARTCHAR aring
ENCODING 229
SWIDTH 572 0
DWIDTH 7 0
BBX 8 10 0 -1
BITMAP
001CC100
003BB200
028EC100
2E94DD00
5F607F30
0888BF40
8F74BF30
AF74DF10
17AAFF71
00004331
ENDCHAR
STARTCHAR ae
ENCODING 230
SWIDTH 1022 0
DWIDTH 12 0
BBX 13 8 0 -1
BITMAP
03896000320000
5F65EA5EEEC200
9F20BFFB01DC00
2988CFFDBBEF10
CF54EFFA333300
EE54FCAFA8A300
28ABFE53651000
00014321000000
ENDCHAR
STARTCHAR ccedilla
ENCODING 231
SWIDTH 589 0
DWIDTH 7 0
BBX 7 11 0 -5
BITMAP
019DD910
1DE45FA0
7F802D90
9F600010
7FB00080
1DFC9D60
017FA500
005F6000
0013E100
006EC000
00010000
ENDCHAR
STARTCHAR egrave
ENCODING 232
SWIDTH 593 0
DWIDTH 7 0
BBX 7 10 0 -1
BITMAP
0007A000
0008F200
0001D400
00477100
0AFBDE30
6F701EB0
9FDBBEE0
7F844330
1DE76930
018A9300
ENDCHAR
STARTCHAR eacute
ENCODING 233
SWIDTH 593 0
DWIDTH 7 0
BBX 7 11 0 -1
BITMAP
00027100
0007F200
000B9000
00001000
00477100
0AFBDE30
6F701EB0
9FDBBEE0
7F844330
1DE76930
018A9300
ENDCHAR
STARTCHAR ecircumflex
ENCODING 234
SWIDTH 593 0
DWIDTH 7 0
BBX 7 10 0 -1
BITMAP
000A9000
007EF500
00923900
00477100
0AFBDE30
6F701EB0
9FDBBEE0
7F844330
1DE76930
018A9300
ENDCHAR
STARTCHAR edieresis
ENCODING 235
SWIDTH 593 0
DWIDTH 7 0
BBX 7 10 0 -1
BITMAP
00221200
00A98B00
00000000
00477100
0AFBDE30
6F701EB0
9FDBBEE0
7F844330
1DE76930
018A9300
ENDCHAR
STARTCHAR igrave
ENCODING 236
SWIDTH 393 0
DWIDTH 5 0
BBX 5 10 0 0
BITMAP
05C000
05F500
00C600
333300
3AFD00
01FC00
01FB00
00FA00
01F900
4DFF80
ENDCHAR
STARTCHAR iacute
ENCODING 237
SWIDTH 393 0
DWIDTH 5 0
BBX 5 11 0 0
BITMAP
003610
008E20
00C800
000000
333300
3AFD00
01FC00
01FB00
00FA00
01F900
4DFF80
ENDCHAR
STARTCHAR icircumflex
ENCODING 238
SWIDTH 393 0
DWIDTH 5 0
BBX 5 10 0 0
BITMAP
01D500
0AEE30
281470
333300
3AFD00
01FC00
01FB00
00FA00
01F900
4DFF80
ENDCHAR
STARTCHAR idieresis
ENCODING 239
SWIDTH 393 0
DWIDTH 5 0
BBX 5 10 0 0
BITMAP
031220
0B7990
000000
333300
3AFD00
01FC00
01FB00
00FA00
01F900
4DFF80
ENDCHAR
STARTCHAR eth
ENCODING 240
SWIDTH 672 0
DWIDTH 8 0
BBX 10 12 -1 -2
BITMAP
0025000510
0003B5BE40
00009FE200
000CF9F600
000530BF20
00279ABF90
06FC65CFE0
1FE1001EF1
1FD0000EE0
0BF5006F80
019EDDE700
0000210000
ENDCHAR
STARTCHAR ntilde
ENCODING 241
SWIDTH 643 0
DWIDTH 8 0
BBX 10 10 -1 0
BITMAP
0002743200
0007EFF300
0002034000
0146334100
5BEFFFFE10
008F707F60
006F303F60
005F203F40
0499838F60
0000044432
ENDCHAR
STARTCHAR ograve
ENCODING 242
SWIDTH 705 0
DWIDTH 8 0
BBX 9 11 0 -1
BITMAP
0004C10000
0005F60000
0000B70000
0000000000
027AB94000
3ED649F900
BF3000BF30
CF2000AF40
7F9004ED10
06CEEE9100
0000100000
ENDCHAR
STARTCHAR oacute
ENCODING 243
SWIDTH 705 0
DWIDTH 8 0
BBX 9 11 0 -1
BITMAP
0000720000
0002F80000
0005E10000
0000100000
027AB94000
3ED649F900
BF3000BF30
CF2000AF40
7F9004ED10
06CEEE9100
0000100000
ENDCHAR
STARTCHAR ocircumflex
ENCODING 244
SWIDTH 705 0
DWIDTH 8 0
BBX 9 10 0 -1
BITMAP
0004E20000
002EEC0000
0066074000
027AB94000
3ED649F900
BF3000BF30
CF2000AF40
7F9004ED10
06CEEE9100
0000100000
ENDCHAR
STARTCHAR otilde
ENCODING 245
SWIDTH 705 0
DWIDTH 8 0
BBX 9 10 0 -1
BITMAP
0016422000
005EFF5000
0021351000
027AB94000
3ED649F900
BF3000BF30
CF2000AF40
7F9004ED10
06CEEE9100
0000100000
ENDCHAR
STARTCHAR odieresis
ENCODING 246
SWIDTH 705 0
DWIDTH 8 0
BBX 9 10 0 -1
BITMAP
0004040000
003F2F3000
0001010000
027AB94000
3ED649F900
BF3000BF30
CF2000AF40
7F9004ED10
06CEEE9100
0000100000
ENDCHAR
STARTCHAR divide
ENCODING 247
SWIDTH 504 0
DWIDTH 6 0
BBX 6 8 0 -1
BITMAP
009B20
00EF50
444411
DFFFFE
676654
00BC20
01EF30
000100
ENDCHAR
STARTCHAR oslash
ENCODING 248
SWIDTH 705 0
DWIDTH 8 0
BBX 9 10 0 -2
BITMAP
0000001000
000006E300
027ABEE100
3ED6AFFA00
BF32FABF30
CF2AE1AF40
7FBF64ED10
06FFEE9100
06F4100000
0150000000
ENDCHAR
STARTCHAR ugrave
ENCODING 249
SWIDTH 614 0
DWIDTH 7 0
BBX 9 11 -1 -1
BITMAP
0004C10000
0004F60000
0000B70000
0000000000
5DE929BB20
04F900CF10
04F700BD00
04F700CB00
01FA03E900
007FFEEC50
0000206520
ENDCHAR
STARTCHAR uacute
ENCODING 250
SWIDTH 614 0
DWIDTH 7 0
BBX 9 11 -1 -1
BITMAP
0000360000
00009E1000
0000C70000
0000000000
5DE929BB20
04F900CF10
04F700BD00
04F700CB00
01FA03E900
007FFEEC50
0000206520
ENDCHAR
STARTCHAR ucircumflex
ENCODING 251
SWIDTH 614 0
DWIDTH 7 0
BBX 9 11 -1 -1
BITMAP
0000C70000
0009EF4000
0019148000
0000000000
5DE929BB20
04F900CF10
04F700BD00
04F700CB00
01FA03E900
007FFEEC50
0000206520
ENDCHAR
STARTCHAR udieresis
ENCODING 252
SWIDTH 614 0
DWIDTH 7 0
BBX 9 10 -1 -1
BITMAP
0004031000
001F3D5000
0001010000
5DE929BB20
04F900CF10
04F700BD00
04F700CB00
01FA03E900
007FFEEC50
0000206520
ENDCHAR
STARTCHAR yacute
ENCODING 253
SWIDTH 655 0
DWIDTH 8 0
BBX 9 16 -1 -6
BITMAP
0000360000
00009E1000
0000C70000
3200000000
0BC74ABA40
02FF10BF70
06FC009F60
08F9009F60
04FE76CF50
005ABACF40
000000AF40
000000BF30
05E300DF00
07F204FA00
01CDAEC200
0004540000
ENDCHAR
STARTCHAR thorn
ENCODING 254
SWIDTH 734 0
DWIDTH 9 0
BBX 10 14 -1 -5
BITMAP
3444300000
17EFB00000
005FB00000
004FB00000
004FB00000
003FECDB60
003FC229F7
002FB000ED
002FB001FC
001FE87DF4
001FC79720
001FB00000
001FC10000
17DDDB5000
ENDCHAR
STARTCHAR ydieresis
ENCODING 255
SWIDTH 655 0
DWIDTH 8 0
BBX 9 15 -1 -6
BITMAP
0004031000
001F3D5000
3201010000
0BC74ABA40
02FF10BF70
06FC009F60
08F9009F60
04FE76CF50
005ABACF40
000000AF40
000000BF30
05E300DF00
07F204FA00
01CDAEC200
0004540000
ENDCHAR
STARTCHAR dotlessi
ENCODING 305
SWIDTH 393 0
DWIDTH 5 0
BBX 5 7 0 0
BITMAP
333300
3AFD00
01FC00
01FB00
00FA00
01F900
4DFF80
ENDCHAR
STARTCHAR Lslash
ENCODING 321
SWIDTH 713 0
DWIDTH 9 0
BBX 10 10 -1 0
BITMAP
3666666200
039FF92000
002FF20000
001FF97000
002FFFB000
08FFF40005
078EF10047
000DF000A7
002DF766F7
17CCBAA984
ENDCHAR
STARTCHAR lslash
ENCODING 322
SWIDTH 365 0
DWIDTH 4 0
BBX 7 12 -2 -1
BITMAP
14444200
027EF600
000BF500
000AF500
0009FBC0
005DFE70
06FFF300
0178F300
0007F200
0006F200
0007F300
008DCB40
ENDCHAR
STARTCHAR OE
ENCODING 338
SWIDTH 1195 0
DWIDTH 14 0
BBX 14 10 0 -1
BITMAP
00000123456798
000038DFFC98BC
028AB82EF5012C
3ED55DEFF52607
BF2004FFF69601
DF0002FFFFF603
9F4005FFF48618
1CE89FACF30358
0047768EFCBBD9
00001444444432
ENDCHAR
STARTCHAR oe
ENCODING 339
SWIDTH 1087 0
DWIDTH 13 0
BBX 13 7 0 -1
BITMAP
00466300242000
2DD89FABFEFA10
BF2007FF405F80
DD0005FF999FD0
8F400AFF665550
08ECEB9FB65820
000100049B8200
ENDCHAR
STARTCHAR Scaron
ENCODING 352
SWIDTH 661 0
DWIDTH 8 0
BBX 8 13 0 -1
BITMAP
00B76C00
002EF400
00056000
00000001
06BCB738
8F824BF7
DF710075
9FFFC711
06CFFFD3
23016EFB
3C1007FA
5BEBBFB1
51145200
ENDCHAR
STARTCHAR scaron
ENCODING 353
SWIDTH 533 0
DWIDTH 6 0
BBX 7 12 0 -1
BITMAP
06B4C500
00BF9000
00190000
00000100
1AEE9800
9E129E00
AFB50800
2CFFE600
6249FF40
9D418F50
98CED700
10000000
ENDCHAR
STARTCHAR Ydieresis
ENCODING 376
SWIDTH 848 0
DWIDTH 10 0
BBX 13 12 -2 -1
BITMAP
00000030400000
000004F2F20000
00000010100000
179ABB40000000
003AFC006EEB40
0000BF901C4000
00001CF8C40000
000001DF600000
0000009F200000
0000009F400000
000000AF600000
00003ACCCA5000
ENDCHAR
STARTCHAR Zcaron
ENCODING 381
SWIDTH 685 0
DWIDTH 8 0
BBX 9 11 0 0
BITMAP
007B5C4000
000BF90000
0001900000
2233444520
AFEDDFFD10
6A006FF300
2704FF6000
023EF90410
01DFC00C00
1CFF647E00
6BBCCCCB00
ENDCHAR
STARTCHAR zcaron
ENCODING 382
SWIDTH 549 0
DWIDTH 7 0
BBX 7 11 0 -1
BITMAP
04C5B700
009FB000
00091000
12233440
BEDDFF80
8707FB00
534FE210
12EF4340
1CF90A50
7DEFFF60
00001210
ENDCHAR
STARTCHAR circumflex
ENCODING 710
SWIDTH 714 0
DWIDTH 9 0
BBX 5 3 2 8
BITMAP
01C600
0AEF30
291470
ENDCHAR
STARTCHAR caron
ENCODING 711
SWIDTH 714 0
DWIDTH 9 0
BBX 5 3 2 8
BITMAP
2D5990
06FD10
008300
ENDCHAR
STARTCHAR breve
ENCODING 728
SWIDTH 715 0
DWIDTH 9 0
BBX 5 4 2 8
BITMAP
010010
1D6980
06FC10
001000
ENDCHAR
STARTCHAR dotaccent
ENCODING 729
SWIDTH 708 0
DWIDTH 9 0
BBX 2 3 3 9
BITMAP
13
6D
01
ENDCHAR
STARTCHAR ring
ENCODING 730
SWIDTH 704 0
DWIDTH 8 0
BBX 3 4 3 8
BITMAP
0100
5CA0
79C0
0520
ENDCHAR
STARTCHAR ogonek
ENCODING 731
SWIDTH 988 0
DWIDTH 12 0
BBX 5 4 3 -2
BITMAP
071000
2F2000
1FDBB0
036510
ENDCHAR
STARTCHAR tilde
ENCODING 732
SWIDTH 707 0
DWIDTH 8 0
BBX 5 3 2 8
BITMAP
065130
2EFF80
122510
ENDCHAR
STARTCHAR hungarumlaut
ENCODING 733
SWIDTH 671 0
DWIDTH 8 0
BBX 5 4 2 8
BITMAP
082810
4FAF50
7C8B00
010100
ENDCHAR
STARTCHAR endash
ENCODING 8211
SWIDTH 576 0
DWIDTH 7 0
BBX 7 3 0 3
BITMAP
14455510
4FFFFF20
15556610
ENDCHAR
STARTCHAR emdash
ENCODING 8212
SWIDTH 993 0
DWIDTH 12 0
BBX 12 3 0 3
BITMAP
122333333441
4FFFFFFFFFF2
266777788882
ENDCHAR
STARTCHAR quoteleft
ENCODING 8216
SWIDTH 261 0
DWIDTH 3 0
BBX 3 4 0 5
BITMAP
0540
1ED0
8F70
4B20
ENDCHAR
STARTCHAR quoteright
ENCODING 8217
SWIDTH 301 0
DWIDTH 4 0
BBX 4 4 0 5
BITMAP
0630
1FE1
5F80
4B10
ENDCHAR
STARTCHAR quotesinglbase
ENCODING 8218
SWIDTH 332 0
DWIDTH 4 0
BBX 4 4 0 -1
BITMAP
0630
1FE1
5F80
4B10
ENDCHAR
STARTCHAR quotedblleft
ENCODING 8220
SWIDTH 477 0
DWIDTH 6 0
BBX 6 4 0 5
BITMAP
054082
1ED6F6
8F8EF1
4B3790
ENDCHAR
STARTCHAR quotedblright
ENCODING 8221
SWIDTH 477 0
DWIDTH 6 0
BBX 6 4 0 5
BITMAP
082450
4FCAF6
9F5FD0
6A1A50
ENDCHAR
STARTCHAR quotedblbase
ENCODING 8222
SWIDTH 477 0
DWIDTH 6 0
BBX 6 4 0 -1
BITMAP
082450
4FCAF6
9F5FD0
6A1A50
ENDCHAR
STARTCHAR dagger
ENCODING 8224
SWIDTH 487 0
DWIDTH 6 0
BBX 6 15 0 -4
BITMAP
000100
00EF00
00EF00
22EF00
BFFFF8
8AEF94
00DE00
00CD00
00CD00
00CD00
00BC00
00BC00
00BC00
00AB00
005600
ENDCHAR
STARTCHAR daggerdbl
ENCODING 8225
SWIDTH 497 0
DWIDTH 6 0
BBX 6 15 0 -4
BITMAP
000100
00EF00
00EF00
22EF00
BFFFF8
8AEF94
01DE32
BFFFF8
58EE96
00CD00
00CC00
00BC00
00BC00
00BB00
005600
ENDCHAR
STARTCHAR bullet
ENCODING 8226
SWIDTH 275 0
DWIDTH 3 0
BBX 4 4 0 3
BITMAP
0210
AFD1
EFF4
8FB0
ENDCHAR
STARTCHAR ellipsis
ENCODING 8230
SWIDTH 787 0
DWIDTH 9 0
BBX 10 2 0 -1
BITMAP
9E54EA1CD2
AF65FB1DE2
ENDCHAR
STARTCHAR perthousand
ENCODING 8240
SWIDTH 888 0
DWIDTH 11 0
BBX 12 11 0 -1
BITMAP
000003000000
4BA12F900000
E7C88F300000
CAE6EB000000
1655F5000000
000BD0000000
002F70100100
008E4EEAEEB0
00E88B4FD3F1
05F23EE9DEA0
026000100100
ENDCHAR
STARTCHAR guilsinglleft
ENCODING 8249
SWIDTH 234 0
DWIDTH 3 0
BBX 3 7 0 -1
BITMAP
0270
0C60
8E10
BD00
2E40
0590
0010
ENDCHAR
STARTCHAR guilsinglright
ENCODING 8250
SWIDTH 223 0
DWIDTH 3 0
BBX 3 7 0 -1
BITMAP
8100
9900
3F50
1F80
7D10
B300
1000
ENDCHAR
STARTCHAR fraction
ENCODING 8260
SWIDTH 600 0
DWIDTH 7 0
BBX 9 12 -1 -2
BITMAP
0000008910
000002FF50
00000AFB00
00004FE200
0000CF7000
0006FD0000
001EF40000
009F900000
03FE100000
0BF6000000
2FB0000000
0220000000
ENDCHAR
STARTCHAR Euro
ENCODING 8364
SWIDTH 590 0
DWIDTH 7 0
BBX 9 8 -1 0
BITMAP
0004AC9100
005F73CC00
14DD21AE00
5EFEC90000
39FD991010
14CF962900
003EFDE600
0001562000
ENDCHAR
STARTCHAR trademark
ENCODING 8482
SWIDTH 624 0
DWIDTH 7 0
BBX 8 6 0 3
BITMAP
07000000
AB300000
77486560
850B4B92
79593984
14002200
ENDCHAR
STARTCHAR minus
ENCODING 8722
SWIDTH 549 0
DWIDTH 7 0
BBX 7 3 0 3
BITMAP
32210000
DFFFFE60
BDCCBB40
ENDCHAR
STARTCHAR fi
ENCODING 64257
SWIDTH 757 0
DWIDTH 9 0
BBX 11 17 -1 -5
BITMAP
000037620000
0005F9BF6000
001EA00DF100
003F702FF300
004F7009A100
004F91111000
0CFFFFFFF400
011FD10CF200
000EE00BF100
000CF109F000
000AF309E000
0008F69FFC20
0006F6000000
1404F7000000
8F25F5000000
5F5BD1000000
06BA20000000
ENDCHAR
STARTCHAR fl
ENCODING 64258
SWIDTH 776 0
DWIDTH 9 0
BBX 11 17 -1 -5
BITMAP
000038830000
0005F8BF6000
001E900EE100
003F700BF400
004F700AF500
004F9009F500
0CFFFFA8F500
011FD108F400
000EE007F400
000CF106F300
000AF306F200
0008F407F400
0006F77DCB40
1404F7000000
8F25F5000000
5F5BD1000000
06BA20000000
ENDCHAR
STARTCHAR .notdef
ENCODING -1
SWIDTH 320 0
DWIDTH 4 0
BBX 1 1 0 0
BITMAP
00
ENDCHAR
ENDFONT
